<svg width="120" height="40" viewBox="0 0 120 40" xmlns="http://www.w3.org/2000/svg">
  <!-- Definiciones de gradientes y filtros -->
  <defs>
    <!-- Gradiente principal -->
    <linearGradient id="primaryGradient" x1="0%" y1="0%" x2="100%" y2="0%">
      <stop offset="0%" style="stop-color:#2C3E50;stop-opacity:1" />
      <stop offset="100%" style="stop-color:#3498DB;stop-opacity:1" />
    </linearGradient>
    
    <!-- Gradiente de acento -->
    <linearGradient id="accentGradient" x1="0%" y1="0%" x2="100%" y2="100%">
      <stop offset="0%" style="stop-color:#E74C3C;stop-opacity:1" />
      <stop offset="100%" style="stop-color:#C0392B;stop-opacity:1" />
    </linearGradient>
    
    <!-- Sombra -->
    <filter id="dropShadow" x="-20%" y="-20%" width="140%" height="140%">
      <feDropShadow dx="2" dy="2" stdDeviation="2" flood-color="#2C3E50" flood-opacity="0.3"/>
    </filter>
    
    <!-- Efecto de brillo -->
    <filter id="glow" x="-20%" y="-20%" width="140%" height="140%">
      <feGaussianBlur stdDeviation="2" result="coloredBlur"/>
      <feMerge> 
        <feMergeNode in="coloredBlur"/>
        <feMergeNode in="SourceGraphic"/>
      </feMerge>
    </filter>
  </defs>
  
  <!-- Fondo decorativo sutil -->
  <rect x="0" y="0" width="120" height="40" fill="none" stroke="none"/>
  
  <!-- Elemento decorativo - línea superior -->
  <rect x="5" y="3" width="110" height="1" fill="url(#primaryGradient)" opacity="0.3"/>
  
  <!-- Letra R -->
  <g transform="translate(8, 8)">
    <!-- Trazo principal de R -->
    <path d="M0 0 L0 24 M0 0 L12 0 Q16 0 16 6 Q16 12 12 12 L0 12 M8 12 L16 24" 
          stroke="url(#primaryGradient)" 
          stroke-width="2.5" 
          fill="none" 
          stroke-linecap="round" 
          stroke-linejoin="round"
          filter="url(#dropShadow)"/>
    <!-- Punto decorativo en R -->
    <circle cx="18" cy="6" r="1.5" fill="url(#accentGradient)"/>
  </g>
  
  <!-- Letra O -->
  <g transform="translate(28, 8)">
    <ellipse cx="8" cy="12" rx="8" ry="12" 
             stroke="url(#primaryGradient)" 
             stroke-width="2.5" 
             fill="none"
             filter="url(#dropShadow)"/>
    <!-- Punto central decorativo -->
    <circle cx="8" cy="12" r="2" fill="url(#accentGradient)" opacity="0.7"/>
  </g>
  
  <!-- Letra C -->
  <g transform="translate(48, 8)">
    <path d="M16 4 Q8 0 0 6 Q0 12 0 18 Q8 24 16 20" 
          stroke="url(#primaryGradient)" 
          stroke-width="2.5" 
          fill="none" 
          stroke-linecap="round"
          filter="url(#dropShadow)"/>
  </g>
  
  <!-- Letra H -->
  <g transform="translate(68, 8)">
    <path d="M0 0 L0 24 M16 0 L16 24 M0 12 L16 12" 
          stroke="url(#primaryGradient)" 
          stroke-width="2.5" 
          fill="none" 
          stroke-linecap="round"
          filter="url(#dropShadow)"/>
    <!-- Elemento decorativo en H -->
    <rect x="6" y="11" width="4" height="2" fill="url(#accentGradient)" rx="1"/>
  </g>
  
  <!-- Letra A -->
  <g transform="translate(88, 8)">
    <path d="M0 24 L8 0 L16 24 M3 18 L13 18" 
          stroke="url(#primaryGradient)" 
          stroke-width="2.5" 
          fill="none" 
          stroke-linecap="round" 
          stroke-linejoin="round"
          filter="url(#dropShadow)"/>
    <!-- Punto superior decorativo -->
    <circle cx="8" cy="2" r="1.5" fill="url(#accentGradient)"/>
  </g>
  
  <!-- Línea decorativa inferior -->
  <rect x="5" y="36" width="110" height="1" fill="url(#primaryGradient)" opacity="0.3"/>
  
  <!-- Elementos decorativos adicionales -->
  <g opacity="0.4">
    <!-- Pequeños elementos geométricos -->
    <circle cx="2" cy="20" r="1" fill="url(#accentGradient)"/>
    <circle cx="118" cy="20" r="1" fill="url(#accentGradient)"/>
    
    <!-- Líneas de conexión sutiles -->
    <line x1="3" y1="20" x2="8" y2="20" stroke="url(#primaryGradient)" stroke-width="0.5" opacity="0.5"/>
    <line x1="112" y1="20" x2="117" y2="20" stroke="url(#primaryGradient)" stroke-width="0.5" opacity="0.5"/>
  </g>
  
  <!-- Animación sutil (opcional, se puede activar con CSS) -->
  <style>
    <![CDATA[
    .logo-animation {
      animation: logoGlow 3s ease-in-out infinite alternate;
    }
    
    @keyframes logoGlow {
      0% { filter: url(#dropShadow); }
      100% { filter: url(#glow); }
    }
    
    .logo-hover:hover {
      animation: logoGlow 0.5s ease-in-out;
    }
    ]]>
  </style>
</svg>
